<svg width="300" height="300" viewBox="0 0 64 64" xmlns="http://www.w3.org/2000/svg">
        <!-- Basket -->
        <rect x="12" y="30" width="40" height="20" rx="3" ry="3" fill="#8B4513" />
        <rect x="10" y="28" width="44" height="4" rx="2" ry="2" fill="#D2691E" />
        
        <!-- Basket handles -->
        <line x1="14" y1="28" x2="14" y2="20" stroke="#8B4513" stroke-width="2" />
        <line x1="50" y1="28" x2="50" y2="20" stroke="#8B4513" stroke-width="2" />

        <!-- Fruits and Vegetables -->
        <!-- Apple -->
        <circle cx="20" cy="25" r="3" fill="#FF6347" /> 
        <rect x="19.7" y="21" width="0.6" height="1.5" fill="#228B22" />
        
        <!-- Orange -->
        <circle cx="28" cy="24" r="3" fill="#FFA500" />
        
        <!-- Grapes -->
        <circle cx="34" cy="26" r="1.5" fill="#8A2BE2" />
        <circle cx="35" cy="24.5" r="1.5" fill="#8A2BE2" />
        <circle cx="33" cy="24.5" r="1.5" fill="#8A2BE2" />
        
        <!-- Banana -->
        <path d="M42 25 C45 22, 48 22, 46 27 S 40 29, 42 25" fill="#FFD700" />
        
        <!-- Lettuce Leaf -->
        <path d="M15 25 Q16 20, 18 23 T 19 27 T 17 28 Q15 27, 15 25 Z" fill="#32CD32" />
        
        <!-- Text below basket -->
        <text x="50%" y="55" font-size="5" fill="#8B4513" font-weight="bold" text-anchor="middle">
            Fresh Groceries
        </text>
    </svg>